<svg width="321" height="52" viewBox="0 0 321 52" fill="none" xmlns="http://www.w3.org/2000/svg">
<g filter="url(#filter0_d_55_460)">
<rect x="4" width="313" height="44" rx="21.5" fill="#0E41DA"/>
<path d="M111.982 17.2727V26H110.413V18.5852H106.595V26H105.027V17.2727H111.982ZM113.984 28.4545V19.4545H115.501V20.5369H115.591C115.67 20.3778 115.783 20.2088 115.928 20.0298C116.072 19.848 116.268 19.6932 116.516 19.5653C116.763 19.4347 117.078 19.3693 117.462 19.3693C117.967 19.3693 118.423 19.4986 118.83 19.7571C119.239 20.0128 119.562 20.392 119.801 20.8949C120.043 21.3949 120.163 22.0085 120.163 22.7358C120.163 23.4545 120.045 24.0653 119.81 24.5682C119.574 25.071 119.253 25.4545 118.847 25.7188C118.44 25.983 117.98 26.1151 117.466 26.1151C117.091 26.1151 116.78 26.0526 116.533 25.9276C116.285 25.8026 116.087 25.652 115.936 25.4759C115.788 25.2969 115.673 25.1278 115.591 24.9688H115.527V28.4545H113.984ZM115.497 22.7273C115.497 23.1506 115.557 23.5213 115.676 23.8395C115.798 24.1577 115.973 24.4062 116.2 24.5852C116.43 24.7614 116.709 24.8494 117.035 24.8494C117.376 24.8494 117.662 24.7585 117.892 24.5767C118.122 24.392 118.295 24.1406 118.412 23.8224C118.531 23.5014 118.591 23.1364 118.591 22.7273C118.591 22.321 118.533 21.9602 118.416 21.6449C118.3 21.3295 118.126 21.0824 117.896 20.9034C117.666 20.7244 117.379 20.6349 117.035 20.6349C116.706 20.6349 116.426 20.7216 116.196 20.8949C115.966 21.0682 115.791 21.3111 115.672 21.6236C115.555 21.9361 115.497 22.304 115.497 22.7273ZM123.152 23.9119L125.772 19.4545H127.358V26H125.866V21.5384L123.254 26H121.664V19.4545H123.152V23.9119ZM132.889 24.206L134.832 19.4545H136.076L133.43 26H132.352L129.765 19.4545H130.997L132.889 24.206ZM130.609 19.4545V26H129.122V19.4545H130.609ZM135.232 26V19.4545H136.707V26H135.232ZM141.34 26.1278C140.684 26.1278 140.117 25.9915 139.64 25.7188C139.165 25.4432 138.8 25.054 138.545 24.5511C138.289 24.0455 138.161 23.4503 138.161 22.7656C138.161 22.0923 138.289 21.5014 138.545 20.9929C138.803 20.4815 139.164 20.0838 139.627 19.7997C140.09 19.5128 140.634 19.3693 141.259 19.3693C141.662 19.3693 142.043 19.4347 142.401 19.5653C142.762 19.6932 143.08 19.892 143.356 20.1619C143.634 20.4318 143.853 20.7756 144.012 21.1932C144.171 21.608 144.251 22.1023 144.251 22.6761V23.1491H138.885V22.1094H142.772C142.769 21.8139 142.705 21.5511 142.58 21.321C142.455 21.0881 142.28 20.9048 142.056 20.7713C141.834 20.6378 141.576 20.571 141.28 20.571C140.965 20.571 140.688 20.6477 140.449 20.8011C140.211 20.9517 140.025 21.1506 139.891 21.3977C139.76 21.642 139.694 21.9105 139.691 22.2031V23.1108C139.691 23.4915 139.76 23.8182 139.9 24.0909C140.039 24.3608 140.233 24.5682 140.483 24.7131C140.733 24.8551 141.026 24.9261 141.361 24.9261C141.586 24.9261 141.789 24.8949 141.971 24.8324C142.153 24.767 142.31 24.6719 142.444 24.5469C142.577 24.4219 142.678 24.267 142.746 24.0824L144.187 24.2443C144.096 24.625 143.922 24.9574 143.667 25.2415C143.414 25.5227 143.09 25.7415 142.695 25.8977C142.3 26.0511 141.849 26.1278 141.34 26.1278ZM150.231 22.0881V23.3537H146.746V22.0881H150.231ZM147.223 19.4545V26H145.736V19.4545H147.223ZM151.241 19.4545V26H149.758V19.4545H151.241ZM154.469 23.9119L157.09 19.4545H158.675V26H157.184V21.5384L154.571 26H152.982V19.4545H154.469V23.9119ZM159.706 20.7202V19.4545H165.434V20.7202H163.316V26H161.824V20.7202H159.706ZM167.886 21.5852H169.816C170.652 21.5852 171.298 21.7884 171.755 22.1946C172.213 22.6009 172.443 23.1335 172.446 23.7926C172.443 24.2216 172.338 24.6023 172.13 24.9347C171.926 25.267 171.627 25.5284 171.235 25.7188C170.846 25.9062 170.373 26 169.816 26H166.842V19.4545H168.329V24.7344H169.816C170.152 24.7344 170.427 24.6491 170.643 24.4787C170.859 24.3054 170.967 24.0838 170.967 23.8139C170.967 23.5298 170.859 23.2983 170.643 23.1193C170.427 22.9403 170.152 22.8509 169.816 22.8509H167.886V21.5852ZM177.104 26V19.4545H182.631V26H181.144V20.7202H178.579V26H177.104ZM184.398 28.4545V19.4545H185.915V20.5369H186.004C186.084 20.3778 186.196 20.2088 186.341 20.0298C186.486 19.848 186.682 19.6932 186.929 19.5653C187.176 19.4347 187.491 19.3693 187.875 19.3693C188.381 19.3693 188.837 19.4986 189.243 19.7571C189.652 20.0128 189.976 20.392 190.214 20.8949C190.456 21.3949 190.577 22.0085 190.577 22.7358C190.577 23.4545 190.459 24.0653 190.223 24.5682C189.987 25.071 189.666 25.4545 189.26 25.7188C188.854 25.983 188.393 26.1151 187.879 26.1151C187.504 26.1151 187.193 26.0526 186.946 25.9276C186.699 25.8026 186.5 25.652 186.349 25.4759C186.202 25.2969 186.087 25.1278 186.004 24.9688H185.94V28.4545H184.398ZM185.91 22.7273C185.91 23.1506 185.97 23.5213 186.089 23.8395C186.212 24.1577 186.386 24.4062 186.614 24.5852C186.844 24.7614 187.122 24.8494 187.449 24.8494C187.79 24.8494 188.075 24.7585 188.305 24.5767C188.535 24.392 188.709 24.1406 188.825 23.8224C188.944 23.5014 189.004 23.1364 189.004 22.7273C189.004 22.321 188.946 21.9602 188.829 21.6449C188.713 21.3295 188.54 21.0824 188.31 20.9034C188.079 20.7244 187.793 20.6349 187.449 20.6349C187.119 20.6349 186.839 20.7216 186.609 20.8949C186.379 21.0682 186.204 21.3111 186.085 21.6236C185.969 21.9361 185.91 22.304 185.91 22.7273ZM194.933 26.1278C194.294 26.1278 193.74 25.9872 193.271 25.706C192.802 25.4247 192.438 25.0312 192.18 24.5256C191.924 24.0199 191.796 23.429 191.796 22.7528C191.796 22.0767 191.924 21.4844 192.18 20.9759C192.438 20.4673 192.802 20.0724 193.271 19.7912C193.74 19.5099 194.294 19.3693 194.933 19.3693C195.572 19.3693 196.126 19.5099 196.595 19.7912C197.063 20.0724 197.426 20.4673 197.681 20.9759C197.94 21.4844 198.069 22.0767 198.069 22.7528C198.069 23.429 197.94 24.0199 197.681 24.5256C197.426 25.0312 197.063 25.4247 196.595 25.706C196.126 25.9872 195.572 26.1278 194.933 26.1278ZM194.941 24.892C195.288 24.892 195.578 24.7969 195.811 24.6065C196.044 24.4134 196.217 24.1548 196.33 23.831C196.447 23.5071 196.505 23.1463 196.505 22.7486C196.505 22.348 196.447 21.9858 196.33 21.6619C196.217 21.3352 196.044 21.0753 195.811 20.8821C195.578 20.6889 195.288 20.5923 194.941 20.5923C194.586 20.5923 194.291 20.6889 194.055 20.8821C193.822 21.0753 193.647 21.3352 193.531 21.6619C193.417 21.9858 193.36 22.348 193.36 22.7486C193.36 23.1463 193.417 23.5071 193.531 23.831C193.647 24.1548 193.822 24.4134 194.055 24.6065C194.291 24.7969 194.586 24.892 194.941 24.892ZM199.558 26V19.4545H205.085V26H203.598V20.7202H201.033V26H199.558ZM207.576 28.4545C207.366 28.4545 207.171 28.4375 206.992 28.4034C206.816 28.3722 206.676 28.3352 206.57 28.2926L206.928 27.0909C207.153 27.1563 207.353 27.1875 207.529 27.1847C207.705 27.1818 207.86 27.1264 207.994 27.0185C208.13 26.9134 208.245 26.7372 208.339 26.4901L208.471 26.1364L206.097 19.4545H207.734L209.242 24.3977H209.31L210.823 19.4545H212.464L209.843 26.7926C209.721 27.1392 209.559 27.4361 209.357 27.6832C209.156 27.9332 208.908 28.1236 208.616 28.2543C208.326 28.3878 207.98 28.4545 207.576 28.4545ZM216.344 26.1278C215.69 26.1278 215.129 25.9844 214.661 25.6974C214.195 25.4105 213.835 25.0142 213.582 24.5085C213.332 24 213.207 23.4148 213.207 22.7528C213.207 22.0881 213.335 21.5014 213.591 20.9929C213.847 20.4815 214.207 20.0838 214.673 19.7997C215.142 19.5128 215.696 19.3693 216.335 19.3693C216.867 19.3693 217.337 19.4673 217.746 19.6634C218.158 19.8565 218.486 20.1307 218.73 20.4858C218.974 20.8381 219.114 21.25 219.148 21.7216H217.673C217.614 21.4062 217.472 21.1435 217.247 20.9332C217.026 20.7202 216.729 20.6136 216.357 20.6136C216.041 20.6136 215.764 20.6989 215.526 20.8693C215.287 21.0369 215.101 21.2784 214.967 21.5938C214.837 21.9091 214.771 22.2869 214.771 22.7273C214.771 23.1733 214.837 23.5568 214.967 23.8778C215.098 24.196 215.281 24.4418 215.517 24.6151C215.756 24.7855 216.036 24.8707 216.357 24.8707C216.584 24.8707 216.787 24.8281 216.966 24.7429C217.148 24.6548 217.3 24.5284 217.422 24.3636C217.544 24.1989 217.628 23.9986 217.673 23.7628H219.148C219.111 24.2259 218.974 24.6364 218.739 24.9943C218.503 25.3494 218.182 25.6278 217.776 25.8295C217.369 26.0284 216.892 26.1278 216.344 26.1278ZM220.594 26V19.4545H222.137V22.0966H222.7L224.668 19.4545H226.526L224.102 22.6676L226.552 26H224.685L222.891 23.5327H222.137V26H220.594Z" fill="white"/>
</g>
<defs>
<filter id="filter0_d_55_460" x="0" y="0" width="321" height="52" filterUnits="userSpaceOnUse" color-interpolation-filters="sRGB">
<feFlood flood-opacity="0" result="BackgroundImageFix"/>
<feColorMatrix in="SourceAlpha" type="matrix" values="0 0 0 0 0 0 0 0 0 0 0 0 0 0 0 0 0 0 127 0" result="hardAlpha"/>
<feOffset dy="4"/>
<feGaussianBlur stdDeviation="2"/>
<feComposite in2="hardAlpha" operator="out"/>
<feColorMatrix type="matrix" values="0 0 0 0 0 0 0 0 0 0 0 0 0 0 0 0 0 0 0.25 0"/>
<feBlend mode="normal" in2="BackgroundImageFix" result="effect1_dropShadow_55_460"/>
<feBlend mode="normal" in="SourceGraphic" in2="effect1_dropShadow_55_460" result="shape"/>
</filter>
</defs>
</svg>
