<svg width="325" height="55" viewBox="0 0 325 55" fill="none" xmlns="http://www.w3.org/2000/svg">
<g filter="url(#filter0_d_55_471)">
<path d="M4 23.5C4 10.5213 14.5213 0 27.5 0H297.5C310.479 0 321 10.5213 321 23.5C321 36.4787 310.479 47 297.5 47H27.5C14.5213 47 4 36.4787 4 23.5Z" fill="white"/>
<path d="M64.9325 27V17.5455H68.5518C69.2351 17.5455 69.8029 17.6532 70.2553 17.8686C70.7108 18.081 71.0509 18.3718 71.2756 18.7411C71.5033 19.1104 71.6172 19.529 71.6172 19.9968C71.6172 20.3815 71.5433 20.7108 71.3956 20.9847C71.2479 21.2556 71.0494 21.4756 70.8001 21.6449C70.5508 21.8142 70.2723 21.9357 69.9645 22.0096V22.1019C70.3 22.1204 70.6216 22.2235 70.9293 22.4112C71.2402 22.5959 71.4941 22.8575 71.6911 23.196C71.888 23.5346 71.9865 23.9439 71.9865 24.424C71.9865 24.9134 71.868 25.3535 71.631 25.7443C71.3941 26.1321 71.0371 26.4383 70.56 26.663C70.083 26.8877 69.4828 27 68.7596 27H64.9325ZM66.6452 25.5689H68.4872C69.1089 25.5689 69.5567 25.4504 69.8306 25.2134C70.1076 24.9734 70.2461 24.6656 70.2461 24.2901C70.2461 24.0101 70.1768 23.7577 70.0384 23.533C69.8999 23.3053 69.7029 23.1268 69.4474 22.9975C69.192 22.8652 68.8873 22.799 68.5334 22.799H66.6452V25.5689ZM66.6452 21.5664H68.3395C68.6349 21.5664 68.9012 21.5125 69.1381 21.4048C69.3751 21.294 69.5613 21.1386 69.6967 20.9386C69.8352 20.7354 69.9045 20.4954 69.9045 20.2184C69.9045 19.8522 69.7752 19.5505 69.5167 19.3136C69.2612 19.0766 68.8812 18.9581 68.3764 18.9581H66.6452V21.5664ZM74.7691 19.9091L76.2002 22.5266L77.6544 19.9091H79.4225L77.2851 23.4545L79.4594 27H77.7006L76.2002 24.4471L74.7137 27H72.941L75.1015 23.4545L72.9964 19.9091H74.7691ZM83.5415 27.1385C82.8491 27.1385 82.2489 26.9862 81.7411 26.6815C81.2333 26.3768 80.8394 25.9505 80.5593 25.4027C80.2823 24.8549 80.1438 24.2147 80.1438 23.4822C80.1438 22.7498 80.2823 22.1081 80.5593 21.5572C80.8394 21.0063 81.2333 20.5785 81.7411 20.2738C82.2489 19.9691 82.8491 19.8168 83.5415 19.8168C84.234 19.8168 84.8342 19.9691 85.342 20.2738C85.8498 20.5785 86.2422 21.0063 86.5192 21.5572C86.7992 22.1081 86.9393 22.7498 86.9393 23.4822C86.9393 24.2147 86.7992 24.8549 86.5192 25.4027C86.2422 25.9505 85.8498 26.3768 85.342 26.6815C84.8342 26.9862 84.234 27.1385 83.5415 27.1385ZM83.5508 25.7997C83.9263 25.7997 84.2402 25.6966 84.4925 25.4904C84.7449 25.2811 84.9326 25.0011 85.0558 24.6502C85.1819 24.2994 85.245 23.9085 85.245 23.4776C85.245 23.0437 85.1819 22.6513 85.0558 22.3004C84.9326 21.9465 84.7449 21.6649 84.4925 21.4556C84.2402 21.2463 83.9263 21.1417 83.5508 21.1417C83.1661 21.1417 82.846 21.2463 82.5906 21.4556C82.3382 21.6649 82.1489 21.9465 82.0227 22.3004C81.8996 22.6513 81.8381 23.0437 81.8381 23.4776C81.8381 23.9085 81.8996 24.2994 82.0227 24.6502C82.1489 25.0011 82.3382 25.2811 82.5906 25.4904C82.846 25.6966 83.1661 25.7997 83.5508 25.7997ZM87.7298 29.0589V25.6243H88.2931C88.4439 25.5073 88.57 25.3488 88.6716 25.1488C88.7732 24.9457 88.8563 24.7071 88.9209 24.4332C88.9886 24.1562 89.044 23.8469 89.0871 23.5053C89.1302 23.1606 89.1686 22.7898 89.2025 22.3928L89.4056 19.9091H94.5299V25.6243H95.6286V29.0589H94.0129V27H89.3733V29.0589H87.7298ZM90.0104 25.6243H92.9326V21.2571H90.8552L90.7444 22.3928C90.6829 23.1437 90.6013 23.7869 90.4997 24.3224C90.3982 24.858 90.2351 25.2919 90.0104 25.6243Z" fill="black"/>
<path d="M36.7071 15.2929C36.3166 14.9024 35.6834 14.9024 35.2929 15.2929L28.9289 21.6569C28.5384 22.0474 28.5384 22.6805 28.9289 23.0711C29.3195 23.4616 29.9526 23.4616 30.3431 23.0711L36 17.4142L41.6569 23.0711C42.0474 23.4616 42.6805 23.4616 43.0711 23.0711C43.4616 22.6805 43.4616 22.0474 43.0711 21.6569L36.7071 15.2929ZM37 32L37 16L35 16L35 32L37 32Z" fill="#0E41DA"/>
</g>
<defs>
<filter id="filter0_d_55_471" x="0" y="0" width="325" height="55" filterUnits="userSpaceOnUse" color-interpolation-filters="sRGB">
<feFlood flood-opacity="0" result="BackgroundImageFix"/>
<feColorMatrix in="SourceAlpha" type="matrix" values="0 0 0 0 0 0 0 0 0 0 0 0 0 0 0 0 0 0 127 0" result="hardAlpha"/>
<feOffset dy="4"/>
<feGaussianBlur stdDeviation="2"/>
<feComposite in2="hardAlpha" operator="out"/>
<feColorMatrix type="matrix" values="0 0 0 0 0 0 0 0 0 0 0 0 0 0 0 0 0 0 0.25 0"/>
<feBlend mode="normal" in2="BackgroundImageFix" result="effect1_dropShadow_55_471"/>
<feBlend mode="normal" in="SourceGraphic" in2="effect1_dropShadow_55_471" result="shape"/>
</filter>
</defs>
</svg>
