<svg xmlns="http://www.w3.org/2000/svg" viewBox="0 0 272.79 323.4"><defs><style>.cls-1,.cls-2{fill:#fff;}.cls-1,.cls-3,.cls-4,.cls-5{stroke:#263238;stroke-linecap:round;stroke-linejoin:round;}.cls-3{fill:none;}.cls-4{fill:#0e41da;}.cls-5{fill:#919191;}</style></defs><g id="Слой_1" data-name="Слой 1"><path class="cls-1" d="M227,105.94l.39-.31Z" transform="translate(-0.5 -0.5)"/><path class="cls-1" d="M218.84,189.87l-41.72,20.29a30.22,30.22,0,0,0,1.42-17.45C176.42,183,167,176,167,176s-34-15.1-42.69-16.75-13.68-4.48-17.22-4.72-9.54-1.37-9.54-1.37l10-8.06s5.43-8.49,13.68-11.56c6.31-2.34,12.89-19.68,15.64-27.74-.06,1.3-.17,2.16-.17,2.16h0S138.05,97,134,94.3s-6.82,2.38-11.93,6.13-25.2,17-25.2,17-31,20.1-37.47,24.87S36.55,175.7,36.55,175.7s-10.9,20.1-14,30.66-6.13,20.43-6.13,20.43L10.6,237.25c-15.13,28-10.24,70.29,0,79.63s23.58,8,36.79,0c14.36-8.7,34.46-25.71,34.46-25.71s9.2-3.07,17-6.47c7.16-3.11,13.54-6.17,19.29-9.13,5.21-2.67,13.13-6.93,23.63-13.35,14.56-8.91,24.66-15.09,36.82-25.19,8-6.62,18.43-15.29,26.87-26.93,6.5-8.94,14.69-23.61,15.22-24.61s.86-1.61.83-1.54C220.72,185.87,219.82,187.86,218.84,189.87Z" transform="translate(-0.5 -0.5)"/><path class="cls-1" d="M226.71,106.19l.11-.09Z" transform="translate(-0.5 -0.5)"/><path class="cls-1" d="M228.16,105l.62-.47Z" transform="translate(-0.5 -0.5)"/><path class="cls-1" d="M229.8,103.82l.79-.56Z" transform="translate(-0.5 -0.5)"/><path class="cls-1" d="M228.92,104.46l.75-.55Z" transform="translate(-0.5 -0.5)"/><path class="cls-1" d="M227.56,105.5l.54-.42Z" transform="translate(-0.5 -0.5)"/><path class="cls-1" d="M224.91,174.68c0,.08,0,.16-.07.24,0-.08,0-.16.07-.24.42-1.47.87-3.34,1.34-5.46C225.78,171.34,225.33,173.21,224.91,174.68Z" transform="translate(-0.5 -0.5)"/><path class="cls-1" d="M226.74,166.92c-.07.31-.13.62-.2.93C226.61,167.54,226.67,167.23,226.74,166.92Z" transform="translate(-0.5 -0.5)"/><path class="cls-1" d="M227,165.49c-.07.33-.14.66-.2,1C226.89,166.15,227,165.82,227,165.49Z" transform="translate(-0.5 -0.5)"/><path class="cls-1" d="M226.48,168.12c-.07.36-.15.71-.22,1C226.33,168.83,226.41,168.48,226.48,168.12Z" transform="translate(-0.5 -0.5)"/><path class="cls-1" d="M245,97.7c-4.69-.4-10.46,2.84-14.35,5.52-2.91,5.82-8.14,17.25-8.49,24.38-.47,9.91,4.25,31.85,4.25,31.85l.69,5.64c2.3-11.51,4.61-26.51,4.61-26.51s1.7-3.07,6.13-9.54,10.56-11.92,13.63-19.76S252.84,98.39,245,97.7Z" transform="translate(-0.5 -0.5)"/><path class="cls-1" d="M223.76,178.24l-.38,1Z" transform="translate(-0.5 -0.5)"/><path class="cls-1" d="M223.06,180.15c-.15.41-.31.83-.48,1.25C222.75,181,222.91,180.57,223.06,180.15Z" transform="translate(-0.5 -0.5)"/><path class="cls-1" d="M224.39,176.39l-.28.83Z" transform="translate(-0.5 -0.5)"/><path class="cls-1" d="M222.3,182.1c-.2.49-.39,1-.6,1.47C221.91,183.08,222.1,182.59,222.3,182.1Z" transform="translate(-0.5 -0.5)"/><path class="cls-2" d="M213.55,201.64s15.47-24.37,18-31.4.94-14.3,0-19.93,1.17-13.82-1.64-16.4-11-2.58-14.29,3.75-2.11,12.42-1.18,18.28,1.41,8.91,1.41,8.91-6.33,6.79-6.33,7.5" transform="translate(-0.5 -0.5)"/><path class="cls-3" d="M213.55,201.64s15.47-24.37,18-31.4.94-14.3,0-19.93,1.17-13.82-1.64-16.4-11-2.58-14.29,3.75-2.11,12.42-1.18,18.28,1.41,8.91,1.41,8.91-6.33,6.79-6.33,7.5" transform="translate(-0.5 -0.5)"/><path class="cls-2" d="M178.62,237s26.72-22.5,30.24-28.59,9.61-17.58,9.84-24.61-4.45-15.47-5.39-19.45-7.26-4.22-11.25.47S199.72,178.67,200,181s.47,4.69.47,4.69-5.15,4.92-6.56,8-2.81,6.1-2.81,6.1-7.5,4.45-10.55,6.56-6.09,7-6.09,7" transform="translate(-0.5 -0.5)"/><path class="cls-3" d="M178.62,237s26.72-22.5,30.24-28.59,9.61-17.58,9.84-24.61-4.45-15.47-5.39-19.45-7.26-4.22-11.25.47S199.72,178.67,200,181s.47,4.69.47,4.69-5.15,4.92-6.56,8-2.81,6.1-2.81,6.1-7.5,4.45-10.55,6.56-6.09,7-6.09,7" transform="translate(-0.5 -0.5)"/><path class="cls-3" d="M202.29,187.81s2.58,6.1,8.91,7" transform="translate(-0.5 -0.5)"/><path class="cls-3" d="M192.22,201.41s-2.58,8.2,8.2,11" transform="translate(-0.5 -0.5)"/><path class="cls-3" d="M217.53,166s-.47,7.26,9.84,5.86" transform="translate(-0.5 -0.5)"/><path class="cls-3" d="M170.89,184.07a30.25,30.25,0,0,1,4.45,14.06" transform="translate(-0.5 -0.5)"/><path class="cls-3" d="M116.51,135.78s-8.9,8.68-10.54,10.55-8.44,6.8-8.44,6.8a66.64,66.64,0,0,1-4.22,9.37" transform="translate(-0.5 -0.5)"/><path class="cls-3" d="M111.12,169.06s-1.4,19.93-13.36,34" transform="translate(-0.5 -0.5)"/><path class="cls-3" d="M138.59,176.36s-8.4,12.94.7,31.83S151.88,239,151.88,239" transform="translate(-0.5 -0.5)"/><path class="cls-1" d="M187.94,5,109.63,148.68a12.15,12.15,0,0,0,8,17.66l62.92,14.39a12.15,12.15,0,0,0,13.58-6.42l75.84-152a7.66,7.66,0,0,0-5.72-11L195.8,1.09A7.66,7.66,0,0,0,187.94,5Z" transform="translate(-0.5 -0.5)"/><path class="cls-4" d="M185.94,15.38l-69.56,128L197.63,162,262.92,29.43Z" transform="translate(-0.5 -0.5)"/><path class="cls-5" d="M271.93,19.5h0v0c0-.07-.09-.14-.13-.22l-1.28-2.19a7.62,7.62,0,0,1-.58,5.27l-75.84,152a12.15,12.15,0,0,1-13.58,6.42l-62.92-14.39a12.07,12.07,0,0,1-8.51-7.22l-.08,0s.48,5.62,6.46,9.93a4.42,4.42,0,0,0,2.34.81,12.19,12.19,0,0,0,1.83.58l62.92,14.39a12.16,12.16,0,0,0,13.59-6.42L272,26.41A7.58,7.58,0,0,0,271.93,19.5Z" transform="translate(-0.5 -0.5)"/><path class="cls-2" d="M189,65.16c-10.07,2.53-17.72,10.65-13.16,23A36.59,36.59,0,0,0,178,92.57c.92,1.69.63,3.29-.82,4.1s-3,.32-4-1.37a29.18,29.18,0,0,1-4-10.62c-1.4-9.25,2.84-17.62,11.41-22a55.35,55.35,0,0,1,8.81-3.19c1.74-.54,2.88.15,3.54,1.82q4.24,10.66,8.43,21.33a2.74,2.74,0,0,1-1.43,3.71,2.78,2.78,0,0,1-3.68-1.77C194,78.58,189.11,65.61,189,65.16Z" transform="translate(-0.5 -0.5)"/><path class="cls-2" d="M195.93,99.3c7.44-1.69,15.7-7.9,13.91-18.79a25.27,25.27,0,0,0-3.14-8.37,4.26,4.26,0,0,1-.65-2,2.67,2.67,0,0,1,.56-1.55,2.75,2.75,0,0,1,1.38-.93,2.66,2.66,0,0,1,3,1c4.5,7.45,6.45,15.24,2.52,23.58-2.89,6.15-8.16,9.68-14.49,11.81a31.67,31.67,0,0,1-4.07,1.08,2.65,2.65,0,0,1-2-.2,2.61,2.61,0,0,1-1.26-1.54q-4.28-10.77-8.52-21.58a2.47,2.47,0,0,1-.25-1.07,2.58,2.58,0,0,1,.21-1.09,2.76,2.76,0,0,1,5.16.28c2.4,6,4.76,12.05,7.14,18.08Z" transform="translate(-0.5 -0.5)"/></g></svg>